<?xml version="1.0" encoding="UTF-8"?>
<svg width="153.5mm" height="58.03mm" inkscape:version="1.0.2 (e86c870879, 2021-01-15, custom)" sodipodi:docname="Logo_Call_of_Duty_WWII_zweifarbig.svg" version="1.1" viewBox="0 0 543.9 205.6" xmlns="http://www.w3.org/2000/svg" xmlns:cc="http://creativecommons.org/ns#" xmlns:dc="http://purl.org/dc/elements/1.1/" xmlns:inkscape="http://www.inkscape.org/namespaces/inkscape" xmlns:rdf="http://www.w3.org/1999/02/22-rdf-syntax-ns#" xmlns:sodipodi="http://sodipodi.sourceforge.net/DTD/sodipodi-0.dtd">
 <sodipodi:namedview bordercolor="#666666" borderopacity="1" gridtolerance="10" guidetolerance="10" inkscape:current-layer="svg2" inkscape:cx="341.85823" inkscape:cy="231.43912" inkscape:document-rotation="0" inkscape:pageopacity="0" inkscape:pageshadow="2" inkscape:window-height="1014" inkscape:window-maximized="1" inkscape:window-width="1920" inkscape:window-x="0" inkscape:window-y="36" inkscape:zoom="1.3435675" objecttolerance="10" pagecolor="#ffffff" showgrid="false"/>
 <title>Call of Duty WWII logo</title>
 <metadata>
  <rdf:RDF>
   <cc:Work rdf:about="">
    <dc:format>image/svg+xml</dc:format>
    <dc:type rdf:resource="http://purl.org/dc/dcmitype/StillImage"/>
    <dc:title/>
   </cc:Work>
  </rdf:RDF>
 </metadata>
 <g transform="matrix(.2901 0 0 .2886 -.4644 -1.538)">
  <g transform="translate(0 314.1)">
   <path d="m1068 396.2c-0.088-0.0802-2.001-0.2635-4.253-0.4073l-4.094-0.2615-2.053-7.443c-11.18-40.52-60.87-235.2-70.39-275.8l-0.6115-2.605 74.76-0.5598 1.155 4.001c0.6354 2.201 3.376 12.37 6.09 22.61 2.714 10.23 7.068 26.48 9.675 36.1 2.607 9.62 7.46 27.71 10.78 40.19 7.311 27.46 18.8 68.89 21.34 76.94 1.017 3.225 2.129 5.566 2.475 5.21 0.3453-0.3557 2.167-10.69 4.047-22.98 1.881-12.28 4.287-27.02 5.348-32.75s1.899-11.58 1.863-13.01c-0.093-3.659 4.307-34.24 5.154-35.82 0.3862-0.7216 0.7021-5.353 0.7021-10.29v-8.98l-3.908-0.0874c-2.149-0.0481-7.257-0.2993-11.35-0.5582l-7.443-0.4708-0.1944-30.33-0.1945-30.33h121.2l0.4488 1.675c0.2468 0.9211 0.4534 14.82 0.459 30.89l0.01 29.21-2.791 0.0114c-3.602 0.0147-4.515 0.6485-5.423 3.762-0.7383 2.532-13.67 68.83-33.06 169.5-5.544 28.79-10.08 52.51-10.08 52.72 0 0.3457-109.2 0.1495-109.6-0.1968zm60.46-188.6c0.4281-3.48 0.7474-7.499 0.7096-8.931-0.038-1.433-0.6722 1.917-1.41 7.443-0.7374 5.526-1.532 11.39-1.765 13.03-0.3041 2.132-0.125 1.816 0.6312-1.116 0.5807-2.251 1.406-6.94 1.834-10.42z" style="fill:#806600" inkscape:connector-curvature="0"/>
   <path d="m858.3 397.3c0.5854-0.3618 0.632-0.6639 0.1294-0.8408-0.4313-0.1519-5.679-19.87-11.66-43.82-14.2-56.86-43.2-170.9-45.09-177.3l-1.477-5.024h-11.12v-61.78l66.43 0.0736c36.54 0.0405 68.27 0.2917 70.52 0.5582l4.094 0.4846 0.195 28.57c0.1306 19.14-0.063 28.88-0.5865 29.51-0.5294 0.6379-3.754 1.026-9.995 1.203-5.068 0.144-9.465 0.513-9.772 0.8201-1.02 1.021 1.965 31.2 4.582 46.32 1.419 8.196 4.928 29.14 7.799 46.53s5.41 32.13 5.642 32.75c0.3286 0.8675 0.5621 0.7558 1.047-0.501 0.6471-1.676 14.27-64.35 15.98-73.56 3.54-18.98 18.43-92.82 20.48-101.6 2.017-8.61 2.814-10.36 4.973-10.9 2.66-0.6676 9.96 0.2322 11.1 1.368 1.046 1.046 8.365 29.22 22.68 87.31 10.69 43.37 11.95 48.66 12.04 50.61 0.041 0.8187 0.4133 1.717 0.8269 1.996 0.4928 0.3326 0.297 2.513-0.568 6.326-3.128 13.79-36.02 139.5-36.67 140.1-0.1926 0.1942-9.793 0.6003-21.33 0.9025-26.92 0.705-101.4 0.602-100.3-0.1385z" style="fill:#806600" inkscape:connector-curvature="0"/>
   <path d="m621.6 396.1c-12.09-0.2466-13.25-0.4786-14.14-2.827-1.541-4.053-18.05-67.97-43.54-168.6-5.86-23.13-14.7-57.93-19.65-77.33-4.95-19.41-8.999-35.7-8.999-36.22 0-1.29 11.36-1.815 43.91-2.031 14.53-0.0963 23.24 0.0273 19.35 0.2747-6.904 0.4392-6.849 0.4483 2.318 0.3836l9.389-0.0662 5.68 21.21c10.15 37.9 26.42 97.94 34.7 128 4.449 16.17 8.474 30.87 8.944 32.66 1.874 7.141 2.501 3.8 11.52-61.31 3.854-27.84 7.233-52.67 7.509-55.17l0.5019-4.563-22.5-1.09v-60.86h119.6l0.4814 5.694c0.8009 9.475 0.5704 53.04-0.2891 54.64-0.4238 0.7918-1.391 1.44-2.15 1.44-2.915 0-4.387 2.404-5.926 9.676-0.823 3.889-6.552 33.03-12.73 64.75-14.29 73.35-27.38 140.5-28.52 146.3l-0.8835 4.466-3.721 0.493c-3.513 0.4654-79.18 0.5355-100.9 0.0934z" style="fill:#806600" inkscape:connector-curvature="0"/>
   <path d="m410.6 397.5c-3.537-0.4754-3.77-0.6478-4.696-3.477-1.558-4.756-7.615-28.11-29.92-115.4-21.07-82.41-26.14-101.8-27.6-105.4-0.8989-2.238-2.486-2.837-7.556-2.852l-3.535-0.0102v-61.78h142.9l-0.1945 29.96-0.1945 29.96-10.17 0.7443c-5.595 0.4094-10.41 0.9814-10.7 1.271-1.201 1.203 3.049 32.82 11.64 86.55 2.878 18.01 5.427 33.54 5.664 34.52 1.098 4.502 2.32-0.8068 19.52-84.79 16.39-80.05 19.18-93.17 20.27-95.57 1.002-2.199 2.514-2.614 9.59-2.626l5.618-0.0102 14.68 59.36c17.45 70.55 19.99 81.44 19.97 85.39-0.0296 4.506-20.88 84.7-35.13 135.1l-2.42 8.559-4.534 0.0688c-34.42 0.5228-110.4 0.8122-113.2 0.4313v3e-5z" style="fill:#806600" inkscape:connector-curvature="0"/>
   <path d="m1237 367.2v-30.89l5.024-0.0101c7.634-0.0155 8.184-0.2913 8.661-4.341 0.2245-1.905 0.6285-39.05 0.8978-82.54l0.4898-79.08h-15.07v-61.78h135.5v61.78h-14.65l-0.4236 41.49c-0.233 22.82-0.2335 60.17-8e-4 82.99l0.4225 41.49h14.66v61.78h-135.5v-30.89h-4e-4z" style="fill:#806600" inkscape:connector-curvature="0"/>
   <path d="m1380 367.2v-30.89h14.89v-166h-14.89v-61.78h134.7v60.82l-6.038 0.4139c-3.321 0.2276-6.391 0.7667-6.822 1.198-0.5354 0.5354-0.8951 26.87-1.134 83.05l-0.3504 82.27h14.35v61.78h-134.7z" style="fill:#806600" inkscape:connector-curvature="0"/>
  </g>
  <g transform="translate(585 86.68)">
   <path d="m1114 244.2 0.059-67.79-24.58-78.97c-13.52-43.43-24.82-79.77-25.11-80.74-0.4941-1.624-2.04-1.75-18.48-1.5l-17.94 0.2723 0.021 146.8 0.02 146.8-105.5-0.5177-0.5066-293.5h-60.99v-74h137.4c129.9 0 137.4 0.0953 138.1 1.75 3.34 8.163 26.6 82.28 28.25 90.02 0.7272 3.409 2.107 3.668 2.811 0.5261 1.223-5.458 10.36-41.18 17.02-66.54l6.764-25.75h47.32c39.83 0 47.32 0.221 47.32 1.396 0 0.7677-4.751 15.96-10.56 33.75-11.33 34.72-36.81 114-53.61 166.9l-10.34 32.5-1 136-96.54 0.5192 0.059-67.79zm-183.5 43.77c0.3399-0.55-0.083-1-0.941-1-0.8574 0-1.559 0.45-1.559 1s0.4234 1 0.941 1c0.5175 0 1.219-0.45 1.559-1zm86.5-85c0-0.55-0.45-1-1-1s-1 0.45-1 1 0.45 1 1 1 1-0.45 1-1zm133-103c0-0.55-0.45-1-1-1s-1 0.45-1 1c0 0.55 0.45 1 1 1s1-0.45 1-1zm-50.45-58.59c-0.4408-2.35-1.999-4.526-5.093-7.112-3.33-2.784-4.304-4.21-3.85-5.639 0.3986-1.256 0.2269-1.678-0.4999-1.229-2.092 1.293-1.157 5.153 1.773 7.319 1.64 1.212 3.901 4.593 5.25 7.851 2.427 5.859 3.631 5.267 2.42-1.19zm-74.5-11.43c0-0.5003-0.6724-0.6516-1.494-0.3362-0.8218 0.3154-1.241 0.9836-0.9309 1.485 0.6481 1.049 2.425 0.2068 2.425-1.149zm69-0.9724c0-0.55-0.45-1-1-1s-1 0.45-1 1 0.45 1 1 1 1-0.45 1-1zm-187-25.04c0-1.324-1.354-1.211-2.8 0.2352-1.888 1.888-1.403 2.979 0.8 1.8 1.1-0.5887 2-1.504 2-2.035zm-3.845-3.789c3.23-1.647 3.682-1.671 4.653-0.25 0.9697 1.42 1.081 1.413 1.134-0.0691 0.079-2.203-2.384-3.019-5.515-1.829-1.406 0.5346-4.382 0.972-6.614 0.972-3.493 0-3.884 0.2086-2.812 1.5 1.662 2.003 4.808 1.892 9.155-0.324zm80.84-5.735c0-0.2425-0.7016-0.441-1.559-0.441-0.8575 0-1.276 0.4573-0.9309 1.016 0.5708 0.9236 2.49 0.4802 2.49-0.5753zm198-2.5c0-0.5175-0.45-0.941-1-0.941s-1 0.7016-1 1.559c0 0.8575 0.45 1.281 1 0.941s1-1.042 1-1.559zm-219 0.166c0-0.4912-0.675-1.152-1.5-1.469-0.9137-0.3506-1.5-2e-3 -1.5 0.893 0 0.8077 0.675 1.469 1.5 1.469s1.5-0.4019 1.5-0.893zm7.104-2.403c-1.284-1.284-2.585-0.2915-1.635 1.246 0.368 0.5956 1.127 0.7997 1.687 0.4537 0.683-0.4221 0.6658-0.9815-0.052-1.7zm1.896-17.7c0-0.55-0.45-1-1-1s-1 0.45-1 1 0.45 1 1 1 1-0.45 1-1zm18-27.5c0-0.825-0.45-1.5-1-1.5s-1 0.675-1 1.5 0.45 1.5 1 1.5 1-0.675 1-1.5zm-262.9 364.4c-13.77-1.116-33-4.904-42.57-8.388-3.85-1.401-5.875-2.302-4.5-2.002 1.375 0.3006 10.1 0.8284 19.39 1.173 14.12 0.5238 16.81 0.4001 16.42-0.7549-0.7428-2.228-6.128-2.925-26.81-3.467l-19.5-0.5114-7.923-4.727c-15.07-8.99-30.46-26.94-35.57-41.48-5.371-15.28-5.972-33.36-5.989-180l-0.0141-127.8h104v142.8c0 98.6 0.3368 144.7 1.088 148.8 2.113 11.52 6.877 16.27 14.84 14.79 8.869-1.646 11.7-6.941 13.06-24.45 0.5517-7.096 0.9744-70.09 0.9874-147.2l0.0227-134.8h103.1l-0.3342 142.2c-0.307 130.7-0.4782 143.1-2.11 152.8-2.919 17.26-7.932 26.96-21.13 40.87-8.741 9.217-16.67 14.91-28.65 20.58-20.31 9.615-48.75 13.8-77.78 11.45zm-5.072-13.2c0-1.672-2.028-3.7-3.7-3.7-1.86 0-1.604 2.048 0.45 3.608 2.238 1.699 3.25 1.728 3.25 0.0921zm4-3.959c0-1.442-3.908-4.166-4.758-3.316-0.6635 0.6635 2.682 4.575 3.913 4.575 0.4647 0 0.845-0.5668 0.845-1.259zm101.8-20.99c-0.2289-0.6875-1.265-1.414-2.302-1.615-1.631-0.3161-1.705-0.1475-0.5447 1.25 1.586 1.911 3.44 2.149 2.846 0.3653zm-3.25-5.82c0-0.7716-0.7875-1.555-1.75-1.74-1.724-0.332-2.436 1.79-1.062 3.164 1.048 1.048 2.812 0.155 2.812-1.424zm4.5 1.129c0-1.18-1.95-2.442-2.667-1.726-0.7163 0.7163 0.5459 2.667 1.726 2.667 0.5176 0 0.941-0.4234 0.941-0.941zm-14.9-2.355c-1.284-1.284-2.585-0.2915-1.635 1.246 0.368 0.5956 1.127 0.7997 1.687 0.4537 0.683-0.4221 0.6658-0.9815-0.052-1.7zm-113.2-4.044c2.056-2.189 4.584-8.56 3.734-9.41-0.2102-0.2103-1.44 0.5642-2.733 1.721s-3.926 3.43-5.85 5.051c-2.915 2.455-3.249 3.115-2 3.948 2.4 1.6 4.492 1.2 6.85-1.31zm8.15-8.244c0-0.8708-0.5344-1.405-1.188-1.188-1.854 0.6181-2.162 2.771-0.3958 2.771 0.8708 0 1.583-0.7125 1.583-1.583zm-25.38-176.5c3.665-3.443 4.944-8.825 3.404-14.32-1.917-6.847-3.64-7.661-5.057-2.389-2.226 8.282-4.303 13.34-6.868 16.74l-2.582 3.414 4.342-0.5824c2.499-0.3351 5.369-1.547 6.761-2.854zm9.385-15.01c0-0.55-0.45-0.7219-1-0.382s-1 1.068-1 1.618 0.45 0.7219 1 0.382 1-1.068 1-1.618zm-44.02-13.63c-0.01-0.9625-0.4241-2.396-0.9238-3.186-0.7409-1.171-1.191-1.201-2.44-0.1647-1.234 1.024-1.3 1.642-0.3357 3.186 1.496 2.395 3.72 2.494 3.699 0.1647zm-20.54-30.47c1.55-2.212 2.12-10.14 0.9497-13.2-1.704-4.44-6.393 1.379-6.393 7.934 0 3.821 1.458 7.484 2.978 7.484 0.4994 0 1.609-1 2.465-2.222zm8.001-5.901c0.8368-2.818 1.278-5.518 0.9797-6-1.06-1.715-2.543-0.8333-3.574 2.123-0.5752 1.65-1.452 3-1.948 3s-0.9022 0.675-0.9022 1.5c0 0.825 0.45 1.5 1 1.5s1 0.675 1 1.5c0 3.314 2.013 1.197 3.444-3.623zm161.6 4.123c0-0.55-0.675-1-1.5-1s-1.5 0.45-1.5 1 0.675 1 1.5 1 1.5-0.45 1.5-1zm-0.5-4c0.3399-0.55-0.083-1-0.941-1-0.8574 0-1.559 0.45-1.559 1 0 0.55 0.4234 1 0.941 1 0.5175 0 1.219-0.45 1.559-1zm-91.5-7.5c0-0.825-0.45-1.5-1-1.5s-1 0.675-1 1.5 0.45 1.5 1 1.5 1-0.675 1-1.5zm117.5-23.98c-1.186-4.112-2.53-7.824-2.986-8.25-1.23-1.148 0.233 7.147 2.071 11.74 2.65 6.624 3.213 4.476 0.9147-3.492zm-1298 329.8c-31.76-3.135-58.51-15.26-76.68-34.77-4.134-4.438-8.832-10.66-10.44-13.84-7.101-14-12.38-50.84-13.14-91.73-0.5824-31.15 0.2388-125.1 1.24-141.9 2.032-34.05 4.113-42.48 14.14-57.26 15.62-23.03 43.77-39.39 77.81-45.21 12.8-2.19 50.18-2.226 64.76-0.0621 27.35 4.062 49.18 14.45 66.3 31.56 11.44 11.43 16.45 19.43 19.43 31.03 5.152 20.06 7.535 46.84 7.572 85.11l0.0191 19.75h-42.8c-31.96 0-43.1-0.304-44-1.2-0.9333-0.9333-1.2-0.9333-1.2 0 0 0.8444-2.667 1.2-9 1.2h-9l-0.0227-33.25c-0.033-48.3-1.762-65.53-7.059-70.32-1.802-1.63-3.659-1.926-12.1-1.926-9.968 0-9.98 3e-3 -12.84 3.209-1.577 1.765-3.67 5.59-4.652 8.5-1.661 4.925-1.806 12.74-2.091 112.8-0.1988 69.79 0.0565 110.5 0.7276 116 1.909 15.7 5.752 19.83 18.55 19.94 15.51 0.1362 19.48-10.34 19.52-51.41 8e-3 -11.01 0.3682-19.47 0.7995-18.79 1.352 2.129 5.185-1.37 5.185-4.735 0-2.147-0.7687-3.341-3-4.659-2.783-1.644-3-2.19-3-7.556l1e-5 -5.784h106l-0.0138 9.75c-0.0236 16.62-1.953 49.25-3.548 60-3.827 25.8-8.481 36.39-21.84 49.68-19.72 19.62-42.27 30.76-70.92 35.02-9.556 1.419-43.68 1.971-54.68 0.8846zm143-109.3c0-0.55-0.45-1-1-1s-1 0.45-1 1 0.45 1 1 1 1-0.45 1-1zm-234-46.58c0-1.766-2.153-1.458-2.771 0.3958-0.2177 0.6531 0.3167 1.188 1.188 1.188 0.8708 0 1.583-0.7125 1.583-1.583zm68.5-6.051c0-2.749-4.574-3.96-9.447-2.5-4.858 1.455-5.355 3.965-1.403 7.074l2.651 2.085 4.099-2.421c2.408-1.422 4.099-3.171 4.099-4.238zm103.5-57.37c0-0.55-0.45-1-1-1s-1 0.45-1 1 0.45 1 1 1 1-0.45 1-1zm11-20c0-0.55-0.45-1-1-1s-1 0.45-1 1 0.45 1 1 1 1-0.45 1-1zm753 50.5v-183.6l72.25 0.3975c60.84 0.3347 74.38 0.6699 85.75 2.122 18.94 2.42 31 5.013 37.72 8.115 18.17 8.376 24.22 12.79 32.69 23.85 13.76 17.97 14.93 31.6 14.33 167.7-0.4393 99.48-0.6456 104.3-5.241 122-2.323 8.965-4.65 13.05-11.72 20.57-9.772 10.39-23.8 16.4-46.83 20.08-8.976 1.432-22.28 1.722-94.69 2.069l-84.25 0.4027v-183.6zm95 139.5c0-0.55-0.675-1-1.5-1s-1.5 0.45-1.5 1 0.675 1 1.5 1 1.5-0.45 1.5-1zm30.28-21.8c5.452-2.412 9.274-7.23 10.67-13.45 2.45-10.93 3.242-46.03 2.764-122.5-0.5531-88.4-0.7522-91.14-7.041-96.93-3.522-3.241-7.903-4.543-19.92-5.918l-5.75-0.6581v242.5l7.417-0.561c4.08-0.3085 9.416-1.445 11.86-2.526zm-94.28-31.26c0-0.5175-0.675-0.941-1.5-0.941-1.546 0-1.987 1.18-0.8605 2.306 0.7989 0.7989 2.36-0.1042 2.36-1.365zm46-23.94c0-0.55-0.45-1-1-1s-1 0.45-1 1 0.45 1 1 1 1-0.45 1-1zm18.5-14c0.3399-0.55-0.057-1-0.882-1s-1.778 0.45-2.118 1 0.057 1 0.882 1 1.778-0.45 2.118-1zm144.5-111.5c0-0.8427-0.6242-3.026-1.387-4.852s-1.702-5.186-2.088-7.468c-0.7498-4.438-1.544-5.034-3.527-2.646-1.644 1.981-0.6537 6.703 2.556 12.18 2.571 4.387 4.447 5.563 4.447 2.786zm-25-76.31c0-1.499-3.84-4.372-4.937-3.694-0.5846 0.3613-1.063-0.0446-1.063-0.902 0-0.8575-0.3421-1.559-0.7602-1.559s-1.969-1.121-3.447-2.491c-3.229-2.994-4.533-1.709-2.716 2.678 0.837 2.021 2.66 3.698 5.346 4.918 4.36 1.98 7.576 2.426 7.576 1.05zm-919 319.9c0-0.5152 8.081-57.1 17.96-125.8 9.877-68.65 21.92-152.4 26.75-186.1l8.791-61.24 76.64-7e-3c66.85-6e-3 76.72 0.1827 77.21 1.478 0.3133 0.8164 1.316 6.779 2.228 13.25 0.9123 6.471 3.386 21.89 5.497 34.27 3.894 22.83 12.94 78.16 22 134.5 14.98 93.23 29.92 187.5 29.92 188.9 0 1.429-4.865 1.588-48.52 1.588h-48.52l-0.904-2.378c-0.4972-1.308-1.406-7.045-2.019-12.75-0.613-5.705-1.966-16.67-3.007-24.37s-2.199-17.49-2.574-21.75l-0.6816-7.75h-53.37l-3.793 32.25c-2.086 17.74-4.023 33.26-4.304 34.5l-0.5113 2.25h-49.39c-30.04 0-49.39-0.367-49.39-0.9368zm81.98-85.81c-0.0279-1.369-1.866-3.702-2.454-3.114-0.7878 0.7878 0.4671 3.864 1.576 3.864 0.4912 0 0.8861-0.3375 0.8777-0.75zm146.5-21.32c-0.8572-1.387-1.457-1.128-1.457 0.6281 0 0.8575 0.4573 1.276 1.016 0.9309 0.559-0.3455 0.7574-1.047 0.441-1.559zm-140.5-20.43c-0.6847-0.825-1.64-1.5-2.122-1.5-0.4827 0-0.8776 0.675-0.8776 1.5 0 0.8622 0.9025 1.5 2.122 1.5 1.773 0 1.918-0.2468 0.8776-1.5zm-1.229-6.312c0.2177-0.6531-0.3167-1.188-1.188-1.188-0.8708 0-1.583 0.7125-1.583 1.583 0 1.766 2.153 1.458 2.771-0.3958zm65.67-2.438c-0.2864-2.338-3.406-28.78-6.932-58.75-3.526-29.98-7.396-62.83-8.599-73s-2.595-18.95-3.091-19.49c-1.168-1.283-3.005 1.519-1.939 2.958 0.421 0.5684-0.0649 8.458-1.08 17.53-3.354 29.98-14.77 127.4-15.38 131.3l-0.5963 3.75h38.14l-0.5207-4.25zm-46.44-61.25c1.625-1.958-0.0447-4.074-4.777-6.051-5.655-2.363-6.78-0.4521-2.634 4.474 2.823 3.355 5.468 3.918 7.411 1.577zm116-14.5c0-0.55-0.45-1-1-1s-1 0.45-1 1 0.45 1 1 1 1-0.45 1-1zm-146.2-40.94c0.25-0.75-0.125-1.125-0.875-0.875-0.7219 0.2406-1.509 1.028-1.75 1.75-0.25 0.75 0.125 1.125 0.875 0.875 0.7219-0.2406 1.509-1.028 1.75-1.75zm-5.562-3.677c0-1.676-0.903-3.496-2.293-4.621-2.036-1.649-2.46-1.689-3.79-0.3594s-1.189 1.963 1.256 5.658c2.993 4.523 4.827 4.265 4.827-0.6774zm57.25-25.39c-0.3423-0.5539-1.993-1.716-3.668-2.582l-3.045-1.575 2.45-2.668c5.009-5.456 8.458-13.17 5.889-13.17-1.835 0-10.12 10.87-10.12 13.27 0 3.494 3.632 7.725 6.632 7.725 1.415 0 2.218-0.4341 1.864-1.007zm144 282.4c-0.6629-0.2791-0.914-63.13-0.7448-186.4l0.2552-186h105l0.5066 297.5 64.5 0.5277v74.97l-84.25-0.0789c-46.34-0.0434-84.7-0.2684-85.25-0.5zm109.5-2.921c0-0.825-0.4234-1.5-0.941-1.5-1.261 0-2.164 1.562-1.365 2.36 1.126 1.126 2.306 0.6859 2.306-0.8605zm51-2c0-1.31-0.4368-2.652-0.9707-2.982-1.169-0.7224-2.495 3.92-1.554 5.441 1.024 1.656 2.525 0.1943 2.525-2.46zm8-0.559c0-0.5175-0.45-0.941-1-0.941s-1 0.7016-1 1.559c0 0.8575 0.45 1.281 1 0.941s1-1.042 1-1.559zm-61.9-3.237c-1.284-1.284-2.585-0.2915-1.635 1.246 0.3681 0.5956 1.127 0.7997 1.687 0.4537 0.683-0.4221 0.6658-0.9815-0.0524-1.7zm19.9-7.204c0-0.825-0.4234-1.5-0.941-1.5-1.261 0-2.164 1.562-1.365 2.36 1.126 1.126 2.306 0.6859 2.306-0.8605zm-11-6.5c0-0.55-0.45-1-1-1s-1 0.45-1 1 0.45 1 1 1 1-0.45 1-1zm10.81-2.938c0.25-0.75-0.125-1.125-0.875-0.875-0.7219 0.2406-1.509 1.028-1.75 1.75-0.25 0.75 0.125 1.125 0.875 0.875 0.7219-0.2406 1.509-1.028 1.75-1.75zm2.609-21.98c1.045-1.154 1.614-2.384 1.266-2.732-0.9223-0.9223-7.832 4.603-7.146 5.714 0.7227 1.169 3.311-0.1433 5.88-2.981zm-7.422 0.8545c0-0.5175-0.45-0.941-1-0.941s-1 0.7016-1 1.559c0 0.8575 0.45 1.281 1 0.941s1-1.042 1-1.559zm-2-3c0-0.5825-0.45-0.7809-1-0.441s-1 0.8165-1 1.059c0 0.2425 0.45 0.441 1 0.441s1-0.4766 1-1.059zm-20-12.94c0-0.55-0.675-1-1.5-1s-1.5 0.45-1.5 1 0.675 1 1.5 1 1.5-0.45 1.5-1zm-8-32.56c0-0.2425-0.7016-0.441-1.559-0.441-0.8575 0-1.276 0.4573-0.9309 1.016 0.5708 0.9236 2.49 0.4802 2.49-0.5753zm-4-38.64c0-1.615-0.2957-1.904-1.113-1.087-0.6121 0.6121-0.8105 1.602-0.441 2.2 1.034 1.674 1.554 1.302 1.554-1.113zm11.97-5.741c0.8379-1.566 0.6108-2.24-1.174-3.491-2.946-2.063-4.544-0.5099-2.989 2.904 1.378 3.025 2.754 3.219 4.163 0.5863zm-60.97-225.6c0-0.8575-0.4573-1.276-1.016-0.9309-0.559 0.3455-0.7574 1.047-0.441 1.559 0.8572 1.387 1.457 1.128 1.457-0.6281zm136 364.6c-1.282-0.8284-1.246-0.9716 0.25-0.9847 1.903-0.0167 2.354-1.524 0.7517-2.514-0.6586-0.407-0.9958-63.21-0.991-184.6l7e-3 -183.9h105l0.5066 297.5 64.5 0.5277v74.97l-84.25-0.0153c-52.67-0.01-84.81-0.3787-85.75-0.9847zm7.771-7.188c-0.6181-1.854-2.771-2.162-2.771-0.3958 0 0.8708 0.7125 1.583 1.583 1.583 0.8708 0 1.405-0.5344 1.188-1.188zm32.23-15.75c0-1.357-1.764-2.249-2.404-1.215-0.5976 0.967 0.2683 2.156 1.57 2.156 0.4583 0 0.8333-0.4234 0.8333-0.941zm-1.245-8.309c-0.2264-0.6875-1.48-1.406-2.786-1.596-2.072-0.3021-2.206-0.1435-1.049 1.25 1.566 1.887 4.427 2.145 3.835 0.346zm8.245-17.92c0-2.054-3.23-4.829-5.62-4.829-1.27 0-2.776 0.8704-3.345 1.934-1.382 2.582-1.326 2.843 0.7148 3.376 3.592 0.9387 8.25 0.6666 8.25-0.4819zm17-59.33c0-0.825-0.45-1.5-1-1.5s-1 0.675-1 1.5 0.45 1.5 1 1.5 1-0.675 1-1.5zm-38.93-0.5352c2.996-1.604 2.304-4.83-1.948-9.082-5.935-5.935-10.58-4.617-10.56 2.994 0.0192 6.147 0.8388 7.124 5.978 7.124 2.528 0 5.468-0.4658 6.531-1.035zm-21.32-75.55c-0.953-0.953-2.864 0.5906-2.153 1.74 0.4221 0.683 0.9815 0.6658 1.7-0.0524 0.5888-0.5888 0.7929-1.348 0.4537-1.687zm90.5-17.37c3.533-3.953 3.927-11.87 0.75-15.05-3.926-3.926-12.28-1.864-17.77 4.386-3.906 4.448-4.089 7.487-0.6575 10.92 4.763 4.763 13.3 4.639 17.67-0.2582zm-75.56-45.48c2.236-1.937 2.554-2.686 1.569-3.687-0.9904-1.006-1.737-0.786-3.75 1.105-2.516 2.363-3.345 5.012-1.569 5.012 0.5193 0 2.207-1.094 3.75-2.43zm4.306 0.4304c0-0.55-0.45-1-1-1s-1 0.45-1 1 0.45 1 1 1 1-0.45 1-1zm28-117c0-0.55-0.45-1-1-1s-1 0.45-1 1 0.45 1 1 1 1-0.45 1-1zm93.77 200.6c-11.85-3.404-20.14-10.88-21.84-19.72-1.263-6.537-1.14-88.77 0.141-94.75 2.89-13.47 22.36-23.32 39.91-20.18 14.89 2.66 24.88 10.29 27.03 20.63 0.7349 3.54 0.9988 20.38 0.7943 50.7l-0.3062 45.4-3.036 4.92c-3.159 5.12-10.51 10.4-17.45 12.54-5.612 1.728-19.92 1.988-25.24 0.4585zm15.03-20.78c0.8975-0.8975 1.2-12.44 1.2-45.8 0-33.36-0.3025-44.9-1.2-45.8-1.837-1.837-5.608-1.428-6.765 0.7343-0.6677 1.248-1.035 17.25-1.035 45.07 0 27.82 0.3675 43.82 1.035 45.07 1.157 2.162 4.928 2.571 6.765 0.7343zm36.22-46.3-1e-3 -68.5h53.98v32h-19v22h19v27h-18v56h-35.98zm25.98-12.44c0-1.18-1.95-2.442-2.667-1.726-0.7163 0.7163 0.5458 2.667 1.726 2.667 0.5175 0 0.941-0.4234 0.941-0.941z"/>
  </g>
 </g>
</svg>
